<svg width="199" height="40" viewBox="0 0 199 40" fill="none" xmlns="http://www.w3.org/2000/svg">
<path d="M60.9545 30.184V26.584H65.7425V29.608C65.7425 32.776 64.2545 34.36 61.2785 34.36H56.7425C53.7665 34.36 52.2785 32.776 52.2785 29.608V15.1C52.2785 11.932 53.7665 10.348 56.7425 10.348H61.2785C64.2545 10.348 65.7425 11.932 65.7425 15.1V17.296H60.9545V14.488C60.9545 14.296 60.8825 14.128 60.7385 13.984C60.6185 13.84 60.4625 13.768 60.2705 13.768H58.0025C57.8105 13.768 57.6425 13.84 57.4985 13.984C57.3785 14.128 57.3185 14.296 57.3185 14.488V30.184C57.3185 30.376 57.3785 30.544 57.4985 30.688C57.6425 30.832 57.8105 30.904 58.0025 30.904H60.2705C60.4625 30.904 60.6185 30.832 60.7385 30.688C60.8825 30.544 60.9545 30.376 60.9545 30.184ZM76.0748 16.072H77.0108V20.752H74.6348C73.8188 20.752 73.4108 21.172 73.4108 22.012V34H68.5868V16.432H72.9788V18.124C73.6748 16.756 74.7068 16.072 76.0748 16.072ZM87.7008 16.072C90.6768 16.072 92.1648 17.656 92.1648 20.824V26.512H83.9928V30.184C83.9928 30.376 84.0528 30.544 84.1728 30.688C84.3168 30.832 84.4848 30.904 84.6768 30.904H86.6568C86.8488 30.904 87.0048 30.832 87.1248 30.688C87.2688 30.544 87.3408 30.376 87.3408 30.184V28.24H92.1648V29.608C92.1648 32.776 90.6768 34.36 87.7008 34.36H83.6328C80.6568 34.36 79.1688 32.776 79.1688 29.608V20.824C79.1688 17.656 80.6568 16.072 83.6328 16.072H87.7008ZM83.9928 23.344H87.3408V20.104C87.3408 19.912 87.2688 19.744 87.1248 19.6C87.0048 19.456 86.8488 19.384 86.6568 19.384H84.6768C84.4848 19.384 84.3168 19.456 84.1728 19.6C84.0528 19.744 83.9928 19.912 83.9928 20.104V23.344ZM103.741 16.432H107.809V34H103.741V32.704C102.997 33.808 101.761 34.36 100.033 34.36H99.2774C96.3014 34.36 94.8134 32.776 94.8134 29.608V20.824C94.8134 17.656 96.3014 16.072 99.2774 16.072H100.033C101.761 16.072 102.997 16.624 103.741 17.728V16.432ZM102.985 30.184V20.248C102.985 20.056 102.913 19.888 102.769 19.744C102.649 19.6 102.493 19.528 102.301 19.528H100.321C100.129 19.528 99.9614 19.6 99.8174 19.744C99.6974 19.888 99.6374 20.056 99.6374 20.248V30.184C99.6374 30.376 99.6974 30.544 99.8174 30.688C99.9614 30.832 100.129 30.904 100.321 30.904H102.301C102.493 30.904 102.649 30.832 102.769 30.688C102.913 30.544 102.985 30.376 102.985 30.184ZM117.499 31.228H118.939V34.36H115.555C112.579 34.36 111.091 32.776 111.091 29.608V12.616H115.915V16.432H118.939V19.924H115.915V29.5C115.915 30.172 116.047 30.628 116.311 30.868C116.575 31.108 116.971 31.228 117.499 31.228ZM129.994 16.072C132.97 16.072 134.458 17.656 134.458 20.824V26.512H126.286V30.184C126.286 30.376 126.346 30.544 126.466 30.688C126.61 30.832 126.778 30.904 126.97 30.904H128.95C129.142 30.904 129.298 30.832 129.418 30.688C129.562 30.544 129.634 30.376 129.634 30.184V28.24H134.458V29.608C134.458 32.776 132.97 34.36 129.994 34.36H125.926C122.95 34.36 121.462 32.776 121.462 29.608V20.824C121.462 17.656 122.95 16.072 125.926 16.072H129.994ZM126.286 23.344H129.634V20.104C129.634 19.912 129.562 19.744 129.418 19.6C129.298 19.456 129.142 19.384 128.95 19.384H126.97C126.778 19.384 126.61 19.456 126.466 19.6C126.346 19.744 126.286 19.912 126.286 20.104V23.344ZM149.208 34H144.384V16.432H148.776V17.332C149.52 16.492 150.648 16.072 152.16 16.072H152.916C155.892 16.072 157.38 17.656 157.38 20.824V34H152.556V20.248C152.556 20.056 152.484 19.888 152.34 19.744C152.22 19.6 152.064 19.528 151.872 19.528H149.892C149.7 19.528 149.532 19.6 149.388 19.744C149.268 19.888 149.208 20.056 149.208 20.248V34ZM169.193 16.072C172.169 16.072 173.657 17.656 173.657 20.824V26.512H165.485V30.184C165.485 30.376 165.545 30.544 165.665 30.688C165.809 30.832 165.977 30.904 166.169 30.904H168.149C168.341 30.904 168.497 30.832 168.617 30.688C168.761 30.544 168.833 30.376 168.833 30.184V28.24H173.657V29.608C173.657 32.776 172.169 34.36 169.193 34.36H165.125C162.149 34.36 160.661 32.776 160.661 29.608V20.824C160.661 17.656 162.149 16.072 165.125 16.072H169.193ZM165.485 23.344H168.833V20.104C168.833 19.912 168.761 19.744 168.617 19.6C168.497 19.456 168.341 19.384 168.149 19.384H166.169C165.977 19.384 165.809 19.456 165.665 19.6C165.545 19.744 165.485 19.912 165.485 20.104V23.344ZM184.298 16.432H188.906L191.534 30.076L193.586 16.432H198.266L194.414 34H188.582L186.602 23.164L184.622 34H178.79L174.938 16.432H179.618L181.67 30.076L184.298 16.432Z" fill="black"/>
<path d="M39.6095 0.504835C39.469 0.350452 39.2987 0.226158 39.1088 0.139466C38.9189 0.0527733 38.7134 0.00548187 38.5047 0.000448928C38.296 -0.00458401 38.0885 0.032746 37.8946 0.110184C37.7008 0.187621 37.5246 0.303558 37.3769 0.450989L36.1874 1.63464C36.0433 1.77889 35.9623 1.97447 35.9623 2.17839C35.9623 2.38232 36.0433 2.5779 36.1874 2.72214L37.2778 3.8106C37.3493 3.88241 37.4343 3.93939 37.5278 3.97827C37.6214 4.01715 37.7217 4.03717 37.823 4.03717C37.9243 4.03717 38.0246 4.01715 38.1182 3.97827C38.2118 3.93939 38.2967 3.88241 38.3682 3.8106L39.5278 2.65676C40.1144 2.07118 40.1692 1.11733 39.6095 0.504835ZM33.7826 4.03849L16.425 21.3654C16.3197 21.4702 16.2432 21.6003 16.2028 21.7433L15.4 24.1346C15.3807 24.1995 15.3794 24.2684 15.396 24.334C15.4127 24.3996 15.4467 24.4595 15.4946 24.5073C15.5424 24.5552 15.6023 24.5892 15.6679 24.6059C15.7335 24.6225 15.8024 24.6212 15.8673 24.6019L18.2567 23.799C18.3996 23.7587 18.5298 23.6822 18.6346 23.5769L35.9615 6.21733C36.1218 6.05531 36.2117 5.83659 36.2117 5.60868C36.2117 5.38076 36.1218 5.16204 35.9615 5.00002L35.0047 4.03849C34.8425 3.87672 34.6228 3.78588 34.3937 3.78588C34.1646 3.78588 33.9449 3.87672 33.7826 4.03849Z" fill="black"/>
<path d="M32.5327 14.0058L20.8125 25.749C20.3594 26.2031 19.8027 26.54 19.1904 26.7308L16.7 27.5644C16.1089 27.7313 15.4841 27.7376 14.8898 27.5827C14.2956 27.4277 13.7534 27.1171 13.3191 26.6828C12.8848 26.2485 12.5742 25.7063 12.4192 25.1121C12.2643 24.5178 12.2706 23.893 12.4375 23.3019L13.2711 20.8115C13.4613 20.1994 13.7976 19.6427 14.2509 19.1894L25.9942 7.46733C26.1018 7.35981 26.1752 7.22278 26.2049 7.07357C26.2347 6.92436 26.2196 6.76968 26.1614 6.62909C26.1032 6.4885 26.0047 6.3683 25.8782 6.28372C25.7518 6.19913 25.6031 6.15394 25.4509 6.15387H5.38461C3.95652 6.15387 2.58693 6.72118 1.57712 7.73099C0.567306 8.7408 0 10.1104 0 11.5385V34.6154C0 36.0435 0.567306 37.4131 1.57712 38.4229C2.58693 39.4327 3.95652 40 5.38461 40H28.4615C29.8896 40 31.2592 39.4327 32.269 38.4229C33.2788 37.4131 33.8461 36.0435 33.8461 34.6154V14.5491C33.846 14.3969 33.8009 14.2482 33.7163 14.1217C33.6317 13.9953 33.5115 13.8967 33.3709 13.8386C33.2303 13.7804 33.0756 13.7653 32.9264 13.795C32.7772 13.8248 32.6402 13.8981 32.5327 14.0058Z" fill="black"/>
</svg>
