<svg width="137" height="38" viewBox="0 0 137 38" fill="none" xmlns="http://www.w3.org/2000/svg">
<path d="M57.1232 6.708V30H52.0832V6.708H57.1232ZM68.9723 18.984C71.9483 18.984 73.4363 20.568 73.4363 23.736V25.608C73.4363 28.776 71.9483 30.36 68.9723 30.36H64.9763C62.0003 30.36 60.5123 28.776 60.5123 25.608V24.492H64.9763V26.076C64.9763 26.268 65.0363 26.436 65.1563 26.58C65.3003 26.724 65.4683 26.796 65.6603 26.796H68.6123C68.8043 26.796 68.9603 26.724 69.0803 26.58C69.2243 26.436 69.2963 26.268 69.2963 26.076V23.916C69.2963 23.724 69.2243 23.556 69.0803 23.412C68.9603 23.268 68.8043 23.196 68.6123 23.196H64.9043C61.9283 23.196 60.4403 21.612 60.4403 18.444V16.824C60.4403 13.656 61.9283 12.072 64.9043 12.072H68.6843C71.6603 12.072 73.1483 13.656 73.1483 16.824V17.472H68.6843V16.356C68.6843 16.164 68.6123 15.996 68.4683 15.852C68.3483 15.708 68.1923 15.636 68.0003 15.636H65.2643C65.0723 15.636 64.9043 15.708 64.7603 15.852C64.6403 15.996 64.5803 16.164 64.5803 16.356V18.264C64.5803 18.456 64.6403 18.624 64.7603 18.768C64.9043 18.912 65.0723 18.984 65.2643 18.984H68.9723ZM84.5465 18.984C87.5225 18.984 89.0105 20.568 89.0105 23.736V25.608C89.0105 28.776 87.5225 30.36 84.5465 30.36H80.5505C77.5745 30.36 76.0865 28.776 76.0865 25.608V24.492H80.5505V26.076C80.5505 26.268 80.6105 26.436 80.7305 26.58C80.8745 26.724 81.0425 26.796 81.2345 26.796H84.1865C84.3785 26.796 84.5345 26.724 84.6545 26.58C84.7985 26.436 84.8705 26.268 84.8705 26.076V23.916C84.8705 23.724 84.7985 23.556 84.6545 23.412C84.5345 23.268 84.3785 23.196 84.1865 23.196H80.4785C77.5025 23.196 76.0145 21.612 76.0145 18.444V16.824C76.0145 13.656 77.5025 12.072 80.4785 12.072H84.2585C87.2345 12.072 88.7225 13.656 88.7225 16.824V17.472H84.2585V16.356C84.2585 16.164 84.1865 15.996 84.0425 15.852C83.9225 15.708 83.7665 15.636 83.5745 15.636H80.8385C80.6465 15.636 80.4785 15.708 80.3345 15.852C80.2145 15.996 80.1545 16.164 80.1545 16.356V18.264C80.1545 18.456 80.2145 18.624 80.3345 18.768C80.4785 18.912 80.6465 18.984 80.8385 18.984H84.5465ZM100.013 12.432H104.837V30H100.445V29.1C99.7007 29.94 98.5727 30.36 97.0607 30.36H96.3047C93.3287 30.36 91.8407 28.776 91.8407 25.608V12.432H96.6647V26.184C96.6647 26.376 96.7247 26.544 96.8447 26.688C96.9887 26.832 97.1567 26.904 97.3487 26.904H99.3287C99.5207 26.904 99.6767 26.832 99.7967 26.688C99.9407 26.544 100.013 26.376 100.013 26.184V12.432ZM116.65 12.072C119.626 12.072 121.114 13.656 121.114 16.824V22.512H112.942V26.184C112.942 26.376 113.002 26.544 113.122 26.688C113.266 26.832 113.434 26.904 113.626 26.904H115.606C115.798 26.904 115.954 26.832 116.074 26.688C116.218 26.544 116.29 26.376 116.29 26.184V24.24H121.114V25.608C121.114 28.776 119.626 30.36 116.65 30.36H112.582C109.606 30.36 108.118 28.776 108.118 25.608V16.824C108.118 13.656 109.606 12.072 112.582 12.072H116.65ZM112.942 19.344H116.29V16.104C116.29 15.912 116.218 15.744 116.074 15.6C115.954 15.456 115.798 15.384 115.606 15.384H113.626C113.434 15.384 113.266 15.456 113.122 15.6C113.002 15.744 112.942 15.912 112.942 16.104V19.344ZM132.043 18.984C135.019 18.984 136.507 20.568 136.507 23.736V25.608C136.507 28.776 135.019 30.36 132.043 30.36H128.047C125.071 30.36 123.583 28.776 123.583 25.608V24.492H128.047V26.076C128.047 26.268 128.107 26.436 128.227 26.58C128.371 26.724 128.539 26.796 128.731 26.796H131.683C131.875 26.796 132.031 26.724 132.151 26.58C132.295 26.436 132.367 26.268 132.367 26.076V23.916C132.367 23.724 132.295 23.556 132.151 23.412C132.031 23.268 131.875 23.196 131.683 23.196H127.975C124.999 23.196 123.511 21.612 123.511 18.444V16.824C123.511 13.656 124.999 12.072 127.975 12.072H131.755C134.731 12.072 136.219 13.656 136.219 16.824V17.472H131.755V16.356C131.755 16.164 131.683 15.996 131.539 15.852C131.419 15.708 131.263 15.636 131.071 15.636H128.335C128.143 15.636 127.975 15.708 127.831 15.852C127.711 15.996 127.651 16.164 127.651 16.356V18.264C127.651 18.456 127.711 18.624 127.831 18.768C127.975 18.912 128.143 18.984 128.335 18.984H132.043Z" fill="black"/>
<path d="M26.9822 1.23169C25.7486 -0.0011186 23.7494 -0.0012424 22.5156 1.23142L20.7646 2.98088C20.3838 3.36128 20.3839 3.97841 20.7647 4.35875L20.9133 4.50722C21.2124 4.80591 21.2122 5.29064 20.9128 5.58905C20.6138 5.88713 20.1297 5.88623 19.8318 5.58704L19.686 5.44054C19.3071 5.06005 18.6914 5.05938 18.3117 5.43903L1.23299 22.5163C-0.000359774 23.7495 -0.00073123 25.749 1.23216 26.9827C2.20154 27.9527 3.67687 28.0952 5.03146 27.8814C6.61895 27.6308 8.04185 28.0423 8.99936 28.9998C9.95682 29.9572 10.3683 31.3792 10.1178 32.9661C9.90396 34.3207 10.0461 35.7961 11.0159 36.7658C12.2498 37.9997 14.2504 37.9997 15.4843 36.7658L32.5541 19.696C32.9344 19.3157 32.9353 18.6994 32.5562 18.3179L32.4106 18.1714C32.1119 17.8709 32.1127 17.3855 32.4122 17.0859C32.7118 16.7863 33.1973 16.7856 33.4977 17.0842L33.6443 17.2299C34.0257 17.609 34.642 17.608 35.0224 17.2277L36.7658 15.4843C37.9997 14.2504 37.9997 12.2498 36.7658 11.0159C35.7961 10.0461 34.3207 9.90396 32.9661 10.1178C31.3792 10.3683 29.9572 9.95682 28.9998 8.99936C28.0424 8.04198 27.631 6.61934 27.8813 5.03211C28.095 3.67711 27.9525 2.20135 26.9822 1.23169ZM22.8346 7.5014C23.1342 7.20179 23.6201 7.20215 23.9192 7.5022L25.7075 9.29573C26.006 9.59516 26.0057 10.0798 25.7067 10.3788C25.4071 10.6784 24.9212 10.678 24.622 10.378L22.8338 8.58445C22.5352 8.28503 22.5356 7.80039 22.8346 7.5014ZM18.4577 8.88082C18.7576 8.58552 19.2396 8.58742 19.5373 8.88507L24.3056 13.6533C27.2585 16.6063 27.2592 21.3937 24.3072 24.3475L21.4582 27.1983C18.5151 30.1432 13.7419 30.1443 10.7974 27.2008C7.85264 24.257 7.85257 19.4831 10.7972 16.5392L18.4577 8.88082ZM23.2503 14.7489C20.9024 12.401 17.096 12.4003 14.7473 14.7473L11.8757 17.6167C9.52512 19.9655 9.52442 23.7754 11.8741 26.125C14.2238 28.4747 18.0336 28.474 20.3824 26.1235L23.2519 23.2519C25.5989 20.9031 25.5982 17.0967 23.2503 14.7489ZM27.6204 12.2925C27.9194 11.9935 28.404 11.9931 28.7034 12.2917L30.497 14.0799C30.797 14.3791 30.7974 14.865 30.4978 15.1646C30.1988 15.4635 29.7141 15.4639 29.4147 15.1654L27.6212 13.3771C27.3211 13.0779 27.3208 12.5921 27.6204 12.2925Z" fill="black"/>
</svg>
